<mxfile host="app.diagrams.net" modified="2021-07-14T02:13:42.007Z" agent="5.0 (Macintosh; Intel Mac OS X 10_15_6) AppleWebKit/605.1.15 (KHTML, like Gecko) Version/14.1.1 Safari/605.1.15" etag="DSD-ihz8J4yi19_b2ilm" version="14.8.6" type="github">
  <diagram id="wj4xoyzt25FX-EpY-hU-" name="Page-1">
    <mxGraphModel dx="614" dy="501" grid="1" gridSize="10" guides="1" tooltips="1" connect="1" arrows="1" fold="1" page="1" pageScale="1" pageWidth="850" pageHeight="1100" math="0" shadow="0">
      <root>
        <mxCell id="0" />
        <mxCell id="1" parent="0" />
        <mxCell id="JrnUGM0oW-kDX_x3T0fS-3" value="" style="edgeStyle=orthogonalEdgeStyle;rounded=0;orthogonalLoop=1;jettySize=auto;html=1;" edge="1" parent="1" source="JrnUGM0oW-kDX_x3T0fS-1" target="JrnUGM0oW-kDX_x3T0fS-2">
          <mxGeometry relative="1" as="geometry" />
        </mxCell>
        <mxCell id="JrnUGM0oW-kDX_x3T0fS-13" value="443" style="edgeLabel;html=1;align=center;verticalAlign=middle;resizable=0;points=[];" vertex="1" connectable="0" parent="JrnUGM0oW-kDX_x3T0fS-3">
          <mxGeometry x="-0.15" relative="1" as="geometry">
            <mxPoint as="offset" />
          </mxGeometry>
        </mxCell>
        <mxCell id="JrnUGM0oW-kDX_x3T0fS-6" style="edgeStyle=orthogonalEdgeStyle;rounded=0;orthogonalLoop=1;jettySize=auto;html=1;entryX=0.5;entryY=1;entryDx=0;entryDy=0;exitX=0.5;exitY=1;exitDx=0;exitDy=0;" edge="1" parent="1" source="JrnUGM0oW-kDX_x3T0fS-2" target="JrnUGM0oW-kDX_x3T0fS-4">
          <mxGeometry relative="1" as="geometry" />
        </mxCell>
        <mxCell id="JrnUGM0oW-kDX_x3T0fS-7" value="/health" style="edgeLabel;html=1;align=center;verticalAlign=middle;resizable=0;points=[];" vertex="1" connectable="0" parent="JrnUGM0oW-kDX_x3T0fS-6">
          <mxGeometry x="0.0556" y="-2" relative="1" as="geometry">
            <mxPoint as="offset" />
          </mxGeometry>
        </mxCell>
        <mxCell id="JrnUGM0oW-kDX_x3T0fS-1" value="ALB" style="whiteSpace=wrap;html=1;aspect=fixed;" vertex="1" parent="1">
          <mxGeometry x="280" y="160" width="80" height="80" as="geometry" />
        </mxCell>
        <mxCell id="JrnUGM0oW-kDX_x3T0fS-5" value="" style="edgeStyle=orthogonalEdgeStyle;rounded=0;orthogonalLoop=1;jettySize=auto;html=1;" edge="1" parent="1" source="JrnUGM0oW-kDX_x3T0fS-2" target="JrnUGM0oW-kDX_x3T0fS-4">
          <mxGeometry relative="1" as="geometry" />
        </mxCell>
        <mxCell id="JrnUGM0oW-kDX_x3T0fS-8" value="/*" style="edgeLabel;html=1;align=center;verticalAlign=middle;resizable=0;points=[];" vertex="1" connectable="0" parent="JrnUGM0oW-kDX_x3T0fS-5">
          <mxGeometry x="-0.05" y="-2" relative="1" as="geometry">
            <mxPoint as="offset" />
          </mxGeometry>
        </mxCell>
        <mxCell id="JrnUGM0oW-kDX_x3T0fS-2" value="Target Group" style="whiteSpace=wrap;html=1;aspect=fixed;" vertex="1" parent="1">
          <mxGeometry x="440" y="160" width="80" height="80" as="geometry" />
        </mxCell>
        <mxCell id="JrnUGM0oW-kDX_x3T0fS-12" value="" style="edgeStyle=orthogonalEdgeStyle;rounded=0;orthogonalLoop=1;jettySize=auto;html=1;" edge="1" parent="1" source="JrnUGM0oW-kDX_x3T0fS-4" target="JrnUGM0oW-kDX_x3T0fS-11">
          <mxGeometry relative="1" as="geometry" />
        </mxCell>
        <mxCell id="JrnUGM0oW-kDX_x3T0fS-4" value="NGNIX&amp;nbsp;" style="whiteSpace=wrap;html=1;aspect=fixed;" vertex="1" parent="1">
          <mxGeometry x="600" y="160" width="80" height="80" as="geometry" />
        </mxCell>
        <mxCell id="JrnUGM0oW-kDX_x3T0fS-11" value="NIFI Server&amp;nbsp;" style="whiteSpace=wrap;html=1;aspect=fixed;" vertex="1" parent="1">
          <mxGeometry x="760" y="160" width="80" height="80" as="geometry" />
        </mxCell>
        <mxCell id="JrnUGM0oW-kDX_x3T0fS-15" style="edgeStyle=orthogonalEdgeStyle;rounded=0;orthogonalLoop=1;jettySize=auto;html=1;entryX=0;entryY=0.5;entryDx=0;entryDy=0;" edge="1" parent="1" source="JrnUGM0oW-kDX_x3T0fS-14" target="JrnUGM0oW-kDX_x3T0fS-1">
          <mxGeometry relative="1" as="geometry" />
        </mxCell>
        <mxCell id="JrnUGM0oW-kDX_x3T0fS-17" value="443" style="edgeLabel;html=1;align=center;verticalAlign=middle;resizable=0;points=[];" vertex="1" connectable="0" parent="JrnUGM0oW-kDX_x3T0fS-15">
          <mxGeometry x="-0.04" y="1" relative="1" as="geometry">
            <mxPoint as="offset" />
          </mxGeometry>
        </mxCell>
        <mxCell id="JrnUGM0oW-kDX_x3T0fS-14" value="" style="ellipse;whiteSpace=wrap;html=1;" vertex="1" parent="1">
          <mxGeometry x="70" y="160" width="110" height="80" as="geometry" />
        </mxCell>
      </root>
    </mxGraphModel>
  </diagram>
</mxfile>
